# xmcd
#
# Track frame offsets: 
#        150
#        21516
#        37785
#        54146
#        76461
#        97226
#        116464
#        132903
#        152257
#        165996
#        186679
#        203175
#        221802
#
# Disc length: 3204 seconds
#
# Revision: 6
# Processed by: cddbd v1.5.2PL0 Copyright (c) Steve Scherf et al.
# Submitted via: ExactAudioCopy v1.3
#
DISCID=ac0c820d
DTITLE=Calvin Russell - Rebel Radio
DYEAR=2001
DGENRE=Rock
TTITLE0=Shadow Of Doubt
TTITLE1=It Is What It Is
TTITLE2=Barroom Girls
TTITLE3=No Expectations
TTITLE4=Country Boy
TTITLE5=Freight Train Blues
TTITLE6=Pass You By
TTITLE7=Still Lookin' For You
TTITLE8=Wild Roses
TTITLE9=I Never Cared For You
TTITLE10=Ain't Leavin' Your Love
TTITLE11=I'll Be Here In The Morning
TTITLE12=Nothin' Is
EXTD=Musicians:\n\nRiley Osbourn - keyboard\nRichard Bowden - violin\n
EXTD=Gabe Rhodes - guitar, pump organ\nT. Stephen Bruton - guitar, bac
EXTD=kground vocals\nLloyd Maines - dobro\nJohn Blondell - bass\nFredd
EXTD=ie Krc - drumsnKimmie Rhodes - background vocals\n\nProduced by J
EXTD=oe Gracey\nExecutive Producer: Freddy Fletcher and Pedernales Recor
EXTD=ds\nRecorded at Pedernales Studios, Austin, TX\nEngineer: Boo Mac
EXTD=Leod
EXTT0=(Gary Nicholson)
EXTT1=(Stephan Bruton, John Fleming)
EXTT2=(Gillian Welch, David Rawlings)
EXTT3=(Mick Jagger, Keith Richards)
EXTT4=(Calvin Russel)
EXTT5=
EXTT6=(Calvin Russel)
EXTT7=(Gillian Welch, David Rawlings)t
EXTT8=(Townes Van Zandt)
EXTT9=(Kimmie Rhodes)
EXTT10=(Willie Nelson)
EXTT11=(Townes Van Zandt)
EXTT12=(Calvin Russel)
PLAYORDER=
